<svg width="20" height="28" viewBox="0 0 20 28" fill="none" xmlns="http://www.w3.org/2000/svg">
<path fill-rule="evenodd" clip-rule="evenodd" d="M10 0.666504C4.85335 0.666504 0.666687 4.85317 0.666687 9.99984C0.666687 16.9998 10 27.3332 10 27.3332C10 27.3332 19.3334 16.9998 19.3334 9.99984C19.3334 4.85317 15.1467 0.666504 10 0.666504ZM3.33335 9.99984C3.33335 6.31985 6.32002 3.33318 10 3.33318C13.68 3.33318 16.6667 6.31985 16.6667 9.99984C16.6667 13.8398 12.8267 19.5865 10 23.1732C7.22669 19.6132 3.33335 13.7998 3.33335 9.99984ZM8.66669 8.6665V5.99983H11.3334V8.6665H14V11.3332H11.3334V13.9998H8.66669V11.3332H6.00002V8.6665H8.66669Z" fill="#F1530E"/>
</svg>
