<svg width="16" height="20" viewBox="0 0 16 20" fill="none" xmlns="http://www.w3.org/2000/svg">
<path d="M7.99998 0C3.96821 0 0.688164 3.33899 0.688164 7.44318C0.688164 9.73889 1.84926 12.5253 4.13931 15.7251C5.81517 18.0668 7.46658 19.7369 7.53607 19.8069C7.66381 19.9355 7.83185 20 8.0001 20C8.16346 20 8.32693 19.9391 8.45365 19.8171C8.5233 19.75 10.1789 18.1475 11.8579 15.8382C14.1498 12.6858 15.3119 9.86131 15.3119 7.44314C15.3118 3.33899 12.0317 0 7.99998 0ZM7.99998 10.6565C6.02888 10.6565 4.42532 9.05291 4.42532 7.08185C4.42532 5.11079 6.02892 3.50719 7.99998 3.50719C9.97104 3.50719 11.5746 5.11079 11.5746 7.08185C11.5746 9.05291 9.971 10.6565 7.99998 10.6565Z" fill="#F1530E"/>
</svg>
