<svg width="28" height="28" viewBox="0 0 28 28" fill="none" xmlns="http://www.w3.org/2000/svg">
<g clip-path="url(#clip0)">
<path d="M6.88051 4.15625L5.23912 9.07812H6.79159L8.43183 4.15625H6.88051Z" fill="white"/>
<path d="M27.1797 4.15625H26.3594V3.33594C26.3594 2.88252 25.9925 2.51562 25.5391 2.51562C25.0856 2.51562 24.7187 2.88252 24.7187 3.33594V4.15625H10.1618L8.52135 9.07812H28V4.97656C28 4.52315 27.6331 4.15625 27.1797 4.15625Z" fill="white"/>
<path d="M2.46094 4.15625C2.00752 4.15625 1.64062 4.52315 1.64062 4.97656C1.64062 5.42916 1.27214 5.79688 0.820312 5.79688C0.366898 5.79688 0 6.16377 0 6.61719V9.07812H3.50995L5.15058 4.15625H2.46094Z" fill="white"/>
<path d="M0 10.7188V11.5391C0 11.9925 0.366898 12.3594 0.820312 12.3594C1.27214 12.3594 1.64062 12.7271 1.64861 13.0635L0.286508 22.675C0.0754141 24.1544 1.218 25.4844 2.7125 25.4844H5.93928C7.17298 25.4844 8.22237 24.5607 8.38097 23.3359L8.94655 18.9219H12.3047C13.6617 18.9219 14.7656 17.818 14.7656 16.4609V14H23.8984C24.2093 14 24.4928 13.8246 24.6322 13.5466L26.0461 10.7188C6.19763 10.7188 10.6241 10.7188 0 10.7188ZM9.84375 17.2812C8.93851 17.2812 8.20312 16.545 8.20312 15.6406C8.20312 14.7362 8.93851 14 9.84375 14H9.89822C9.67231 14.724 9.63184 15.4995 9.83095 16.2462C9.92928 16.6176 10.0953 16.9581 10.2892 17.2812H9.84375ZM13.125 16.4609C13.125 16.851 12.8458 17.1626 12.4811 17.2456C11.9626 16.9218 11.5753 16.4217 11.4155 15.8257C11.2509 15.2055 11.3506 14.5516 11.669 14H13.125V16.4609Z" fill="white"/>
</g>
<defs>
<clipPath id="clip0">
<rect width="28" height="28" fill="white"/>
</clipPath>
</defs>
</svg>
