<svg width="28" height="28" viewBox="0 0 28 28" fill="none" xmlns="http://www.w3.org/2000/svg">
<g clip-path="url(#clip0)">
<path d="M14.0005 0C6.28015 0 0.000976562 6.28007 0.000976562 13.9996C0.000976562 21.7199 6.28015 28.0009 14.0005 28.0009C21.7191 28.0009 27.9992 21.7208 27.9992 13.9996C27.9992 6.28007 21.7191 0 14.0005 0ZM14.0005 25.7712C7.50884 25.7712 2.22887 20.4912 2.22887 13.9987C2.22887 7.50875 7.50884 2.227 14.0005 2.227C20.4913 2.227 25.7713 7.50875 25.7713 13.9987C25.7713 20.4912 20.4913 25.7712 14.0005 25.7712Z" fill="white"/>
<path d="M17.1829 11.0441V6.54547C17.1829 5.7704 16.5551 5.14355 15.781 5.14355H12.7485C11.9743 5.14355 11.3475 5.77129 11.3475 6.54547V11.0441H6.84707C6.07289 11.0441 5.44604 11.6719 5.44604 12.446V15.5428C5.44604 16.3169 6.07289 16.9447 6.84707 16.9447H11.3466V21.4424C11.3466 22.2166 11.9735 22.8444 12.7476 22.8444H15.781C16.5543 22.8444 17.182 22.2166 17.182 21.4424V16.9447H21.6806C22.4548 16.9447 23.0826 16.3169 23.0826 15.5428V12.446C23.0826 11.671 22.4548 11.0441 21.6806 11.0441H17.1829Z" fill="white"/>
</g>
<defs>
<clipPath id="clip0">
<rect width="28" height="28" fill="white"/>
</clipPath>
</defs>
</svg>
