<svg width="64" height="64" viewBox="0 0 64 64" fill="none" xmlns="http://www.w3.org/2000/svg">
<g id="icon/content/how_to_reg_24px">
<path id="icon/content/how_to_reg_24px_2" fill-rule="evenodd" clip-rule="evenodd" d="M28 31.3333C33.8933 31.3333 38.6667 26.56 38.6667 20.6667C38.6667 14.7733 33.8933 10 28 10C22.1067 10 17.3333 14.7733 17.3333 20.6667C17.3333 26.56 22.1067 31.3333 28 31.3333ZM28 15.3333C30.9333 15.3333 33.3333 17.7333 33.3333 20.6667C33.3333 23.6 30.9333 26 28 26C25.0667 26 22.6667 23.6 22.6667 20.6667C22.6667 17.7333 25.0667 15.3333 28 15.3333ZM25.2267 42.16C18.8533 42.8533 12.5333 45.6533 12 47.3333H25.3333L30.6667 52.6667H6.66667V47.3333C6.66667 40.24 20.88 36.6667 28 36.6667C28.8533 36.6667 29.6267 36.72 30.6667 36.8267L25.2267 42.16Z" fill="#F1530E"/>
<path id="Vector 4" d="M33 43.5L40 50.5L55.5 35" stroke="#23B388" stroke-width="5"/>
</g>
</svg>
