<svg width="28" height="28" viewBox="0 0 28 28" fill="none" xmlns="http://www.w3.org/2000/svg">
<path fill-rule="evenodd" clip-rule="evenodd" d="M13.9866 0.666504C6.62663 0.666504 0.666626 6.63984 0.666626 13.9998C0.666626 21.3598 6.62663 27.3332 13.9866 27.3332C21.36 27.3332 27.3333 21.3598 27.3333 13.9998C27.3333 6.63984 21.36 0.666504 13.9866 0.666504ZM14 24.6665C8.10663 24.6665 3.33329 19.8932 3.33329 13.9998C3.33329 8.1065 8.10663 3.33317 14 3.33317C19.8933 3.33317 24.6666 8.1065 24.6666 13.9998C24.6666 19.8932 19.8933 24.6665 14 24.6665ZM12.6666 7.33317H14.6666V14.3332L20.6666 17.8932L19.6666 19.5332L12.6666 15.3332V7.33317Z" fill="#F1530E"/>
</svg>
