<svg width="28" height="28" viewBox="0 0 28 28" fill="none" xmlns="http://www.w3.org/2000/svg">
<g clip-path="url(#clip0)">
<path d="M25.6732 21.1814L21.2151 18.9526C20.7947 18.7421 20.5333 18.3193 20.5333 17.8489V16.2711C20.6402 16.1404 20.7527 15.9916 20.8689 15.8273C21.4471 15.0106 21.9105 14.1016 22.2474 13.1211C22.9059 12.8192 23.3333 12.1682 23.3333 11.4332V9.5665C23.3333 9.1171 23.1653 8.6817 22.8667 8.3415V5.8593C22.8928 5.60264 22.9955 4.07477 21.8904 2.8143C20.9319 1.7209 19.3765 1.1665 17.2667 1.1665C15.1569 1.1665 13.6015 1.7209 12.6429 2.81384C11.5379 4.0743 11.6405 5.60264 11.6667 5.85884V8.34104C11.368 8.68124 11.2 9.11664 11.2 9.56604V11.4327C11.2 12.0006 11.4581 12.5303 11.8986 12.8836C12.3261 14.5762 13.2207 15.8516 13.5333 16.2608V17.805C13.5333 18.2568 13.2869 18.6712 12.8907 18.8877L8.72761 21.1585C7.37428 21.8968 6.53381 23.3126 6.53381 24.8545V26.8332H28.0005V24.9464C28 23.342 27.1082 21.8991 25.6732 21.1814Z" fill="white"/>
<path d="M8.39207 20.5448L12.5552 18.274C12.7265 18.1802 12.8333 18.0005 12.8333 17.8054V16.4922C12.4203 15.9173 11.6919 14.76 11.2761 13.2676C10.78 12.786 10.5 12.1303 10.5 11.4331V9.56644C10.5 9.0419 10.6643 8.5309 10.9667 8.10064V5.89191C10.9508 5.71317 10.9321 5.29971 11.0115 4.77424C10.3689 4.55024 9.65393 4.43311 8.86667 4.43311C4.01847 4.43311 3.73613 8.56544 3.73333 8.6331V10.77C3.43093 11.0994 3.26667 11.4798 3.26667 11.8573V13.4692C3.26667 13.9727 3.49207 14.4422 3.87847 14.7595C4.26347 16.2108 5.21033 17.3075 5.579 17.6925V18.9726C5.579 19.3398 5.37927 19.6768 5.03253 19.8662L1.9278 21.8136C0.738733 22.4623 0 23.7069 0 25.0612V26.8331H5.83333V24.8554C5.83333 23.0573 6.8138 21.4058 8.39207 20.5448Z" fill="white"/>
</g>
<defs>
<clipPath id="clip0">
<rect width="28" height="28" fill="white"/>
</clipPath>
</defs>
</svg>
