<svg width="20" height="18" viewBox="0 0 20 18" fill="none" xmlns="http://www.w3.org/2000/svg">
<path d="M19.9997 9.91951C19.9997 9.52611 19.9109 9.15037 19.7505 8.80662C19.734 8.71922 19.7151 8.63197 19.6915 8.54346L17.9542 4.23804L17.9424 4.1993C17.3346 2.38943 16.4697 0.714355 14.2766 0.714355H5.89163C3.6445 0.714355 2.85043 2.43094 2.22927 4.18925L0.412068 8.50517C0.149359 8.92609 0 9.40758 0 9.91951V11.2592C0 11.4664 0.0244837 11.669 0.0710384 11.8641C0.0257794 11.982 0 12.1091 0 12.243V16.2277C0 16.812 0.473679 17.2857 1.05798 17.2857H3.25347C3.83746 17.2857 4.31114 16.812 4.31114 16.2277V14.2351H15.814V16.2277C15.814 16.812 16.2878 17.2857 16.8721 17.2857H18.9419C19.5264 17.2857 20 16.812 20 16.2277V12.2426C20 12.1091 19.974 11.9815 19.9291 11.864C19.9754 11.6685 20 11.4661 20 11.2591V9.91955H19.9997V9.91951ZM3.51859 4.62151C4.21035 2.66983 4.76663 2.07405 5.89163 2.07405H14.2761C15.3929 2.07405 16.0147 2.73855 16.6466 4.61311L17.9143 7.1822C17.5004 7.02891 17.0448 6.94385 16.5663 6.94385H3.43348C3.00256 6.94385 2.59076 7.01314 2.21081 7.13855L3.51859 4.62151ZM4.60762 11.768H2.29115C1.87407 11.768 1.53582 11.4295 1.53582 11.0124C1.53582 10.5953 1.87407 10.2569 2.29115 10.2569H4.60762C5.02487 10.2569 5.36313 10.5953 5.36313 11.0124C5.36313 11.4295 5.02465 11.768 4.60762 11.768ZM12.7907 11.6167H7.40247C7.13829 11.6167 6.92424 11.4025 6.92424 11.1385C6.92424 10.8739 7.13829 10.6598 7.40247 10.6598H12.7907C13.0552 10.6598 13.2692 10.8739 13.2692 11.1385C13.2692 11.4025 13.0552 11.6167 12.7907 11.6167ZM17.6502 11.768H15.3338C14.9164 11.768 14.5783 11.4295 14.5783 11.0124C14.5783 10.5953 14.9166 10.2569 15.3338 10.2569H17.6502C18.0676 10.2569 18.406 10.5953 18.406 11.0124C18.406 11.4295 18.0676 11.768 17.6502 11.768Z" fill="white"/>
</svg>
